<?xml version="1.0" encoding="UTF-8"?><svg id="Ebene_2" xmlns="http://www.w3.org/2000/svg" xmlns:xlink="http://www.w3.org/1999/xlink" viewBox="0 0 383.36 383.16"><defs><style>.cls-1{fill:#fff;}.cls-2{filter:url(#drop-shadow-1);}</style><filter id="drop-shadow-1" filterUnits="userSpaceOnUse"><feOffset dx="7" dy="7"/><feGaussianBlur result="blur" stdDeviation="5"/><feFlood flood-color="#000" flood-opacity=".75"/><feComposite in2="blur" operator="in"/><feComposite in="SourceGraphic"/></filter></defs><g id="Ebene_1-2"><g class="cls-2"><path class="cls-1" d="M144.57,383.16c-4.06-2.2-5.49-5.56-5.32-10.18,.29-7.72,.23-15.47-.03-23.2-.07-2.01-1.06-4.24-2.27-5.91-2.41-3.32-5.34-6.26-7.92-9.46-2.92-3.6-2.66-7.96,.47-10.72,3.17-2.8,7.57-2.57,10.67,.86,4.17,4.63,8.31,9.32,12.1,14.26,1.25,1.62,1.88,4.09,1.94,6.19,.23,7.58,.09,15.17,.09,22.97h59.67c.07-.94,.2-2,.21-3.06,.02-7.48-.24-14.98,.15-22.45,.13-2.49,1.36-5.33,2.98-7.25,3.44-4.09,7.49-7.66,11.27-11.48,10.43-10.54,15.57-23.24,15.56-38.05-.01-20.71,0-41.42,0-62.13,0-.87,.04-1.75-.05-2.62-.42-4.02-3.63-6.96-7.5-6.92-3.88,.03-7.16,2.99-7.34,7.04-.21,4.73-.04,9.48-.09,14.22-.05,5.17-2.94,8.54-7.34,8.62-4.54,.09-7.59-3.35-7.61-8.71-.04-9.11,.01-18.21-.02-27.32-.02-5.41-2.98-8.84-7.51-8.82-4.53,.02-7.41,3.43-7.45,8.88-.03,4.37,.07,8.73-.03,13.1-.11,4.73-3.38,8.03-7.66,7.91-4.15-.12-7.21-3.33-7.25-7.93-.08-9.36,0-18.71-.04-28.07-.02-5.43-2.95-8.85-7.47-8.86-4.53,0-7.46,3.42-7.48,8.85-.03,8.98,0,17.96-.02,26.95-.02,5.67-3.01,9.17-7.65,9.06-4.51-.11-7.31-3.51-7.31-9.02-.01-28.32,0-56.64,0-84.95,0-1.25,.06-2.5-.05-3.74-.38-4.05-3.53-7-7.4-7.02-3.88-.02-7.08,2.92-7.46,6.95-.12,1.24-.05,2.49-.05,3.74,0,45.41,0,90.82,0,136.23,0,.87-.04,1.75,0,2.62,.2,3.71-1.04,6.7-4.55,8.25-3.74,1.65-6.68,.07-9.36-2.63-9.48-9.57-19.03-19.07-28.56-28.6-.79-.79-1.57-1.62-2.44-2.32-3.21-2.6-7.44-2.45-10.19,.3-2.65,2.65-3.01,6.77-.5,9.87,3.76,4.65,7.93,8.99,11.57,13.73,1.41,1.84,2.85,4.65,2.44,6.63-.48,2.28-2.63,5.13-4.72,5.89-2.08,.76-5.87,.1-7.38-1.44-5.4-5.5-10.64-11.29-15.05-17.6-6.38-9.12-4.07-21.85,4.5-29.04,8.66-7.27,21.4-7.04,29.72,.88,6.4,6.09,12.43,12.57,19.25,19.52v-103.54c-.8,.34-1.67,.62-2.46,1.04-48.86,25.91-107.78-1.3-119.72-55.3C-8.47,52.59,25.13,5.75,72.76,.54c44.47-4.86,83.92,25.02,91.06,69.11,2.2,13.55,.81,26.86-3.72,39.8-.79,2.27-.82,3.58,1.27,5.29,5.29,4.34,7.84,10.21,7.88,17.08,.05,11.35,.02,22.7,.02,34.06,0,1.35,0,2.7,0,4.12,14.12-3.22,24.43,2.87,29.37,15.22,15.44-2.9,23.51,1.13,29.56,14.41,4.59,0,9.11-.66,13.35,.13,10.1,1.88,17.4,10.73,17.47,21,.15,22.95,.4,45.92-.1,68.86-.38,17.14-7.31,31.88-19.25,44.21-3.47,3.58-8.34,6.6-10.04,10.87-1.76,4.43-.46,10.07-.48,15.19-.02,4.37-.23,8.75,.06,13.09,.31,4.62-1.26,7.97-5.3,10.18h-79.35Zm-14.83-267.54c4.22-2.09,7.75-4.19,11.54-5.56,2.09-.76,3.34-1.6,4.1-3.68,3.93-10.73,5.2-21.69,3.8-33.08-4.62-37.63-41.93-64.74-79.02-57.27C33.79,23.35,10.78,55.73,15.92,92.67c1.5,10.75,5.64,20.53,12.42,29.55,7.09-7.62,15.43-12.8,25.6-15.77-5.43-6.96-8.64-14.42-8.86-22.9-.15-5.86-.16-11.73,0-17.58,.52-18.85,15.72-34.66,34.5-36.02,19.33-1.4,36.72,12.03,39.56,31.1,.95,6.36,.55,12.92,.73,19.39,.25,8.91-2.24,16.96-7.55,24.14-.4,.54-.58,1.25-.82,1.77,3.43,1.45,6.72,2.63,9.81,4.22,3.08,1.58,5.96,3.56,8.43,5.06Zm-24.94-40.88h.08c0-2.74,.08-5.49-.01-8.23-.42-12.05-10.33-21.64-22.35-21.67-12.19-.03-22.19,9.65-22.49,21.9-.13,5.36-.13,10.73,.01,16.09,.17,6.58,2.56,12.48,7.95,16.21,5.02,3.47,7.45,7.27,7.18,13.57-.24,5.71,6.33,8.9,11.11,5.95,3-1.85,3.95-4.73,3.64-8.05-.41-4.45,1.32-7.53,5.14-9.94,5.81-3.69,8.98-9.28,9.7-16.09,.34-3.21,.06-6.48,.06-9.72Zm-66.02,58.52c.54,.58,.76,.88,1.04,1.12,22.81,19.46,59.17,20.31,82.78,1.95,2.41-1.87,2.57-4.35,.28-6.55-4.78-4.6-10.47-7.59-16.91-9.01-1-.22-2.85,.63-3.39,1.53-9.99,16.59-30.28,16.58-40.28-.03-.51-.86-2.18-1.75-3.06-1.54-8.1,1.86-14.95,5.87-20.47,12.54Z"/><path class="cls-1" d="M383.36,89.73c-.88,4.37-1.53,8.8-2.66,13.1-10.02,38.24-45.01,63.76-84.38,61.66-38.53-2.06-70.57-31.18-76.72-69.74C212.3,49.1,245.46,5.63,291.46,.53c45.22-5.02,85.28,26.35,91.21,71.39,.13,.96,.46,1.9,.69,2.84v14.97Zm-28.1,31.95c18.07-22.72,19.47-62.51-8.16-88.49-26.91-25.3-68.67-24.3-94.38,2.18-26.39,27.19-22.53,66.2-5.54,86.61,6.87-7.46,15.27-12.53,25.32-15.56-5.54-7.13-8.72-14.71-8.87-23.36-.1-5.61-.12-11.23,.01-16.84,.45-18.66,14.63-33.93,33.51-36.21,17.79-2.15,35.88,9.65,39.62,27.55,2,9.57,1.36,19.8,1.13,29.71-.17,7.11-3.87,13.24-8.01,18.76,4.71,2.26,9.37,4.04,13.54,6.62,4.19,2.59,7.9,5.98,11.82,9.02Zm-76.94-46.88l.28,.02c0,2.74-.1,5.49,.02,8.23,.29,6.57,2.7,12.44,8.11,16.13,4.94,3.38,7.4,7.15,6.96,13.27-.3,4.18,3.47,7.29,7.48,7.2,3.87-.08,6.93-3.07,7.31-7.13,.02-.25,.06-.5,.02-.75-.79-5.49,1.61-9.01,6.18-12.06,5.82-3.89,8.56-9.95,8.75-16.96,.15-5.36,.15-10.73,0-16.09-.3-11.35-9.11-20.72-20.32-21.76-11.28-1.04-21.64,6.42-23.89,17.63-.8,3.99-.63,8.17-.91,12.26Zm66.38,58.45c-5.53-6.64-12.38-10.68-20.5-12.53-.88-.2-2.53,.71-3.05,1.57-10.01,16.64-30.18,16.62-40.27-.08-.47-.77-1.71-1.76-2.38-1.62-8.48,1.81-15.63,5.87-21.12,12.72,23.11,21.53,64.91,21.49,87.32-.06Z"/><path class="cls-1" d="M383.36,257.4c-.71,2.89-1.33,5.81-2.16,8.66-6.47,22.2-26.63,37.54-49.71,37.72-14.71,.12-29.42,.05-44.14,.02-7.36-.02-11.11-5.5-7.38-11.71,4.73-7.88,5.57-14.65,1.82-23.9-8.54-21.04-.44-45.02,17.7-58.65,18.17-13.65,42.83-14.06,61.48-1.03,.81,.57,1.64,1.11,2.63,1.78,1.63-2.15,3.21-4.22,4.78-6.3,5.16-6.84,10.19-6.76,14.98,.25v4.49c-2.62,3.58-5.31,7.11-7.82,10.76-.58,.85-1.1,2.52-.68,3.17,4.58,6.95,6.74,14.76,8.49,22.74v11.98Zm-19.2-22.56c-.83,1.02-1.64,1.93-2.37,2.91-7.56,10.07-15.11,20.14-22.65,30.22-5.7,7.61-9.28,7.91-15.9,1.29-3.79-3.79-7.61-7.56-11.37-11.38-4.06-4.12-4.43-8.5-1.05-11.79,3.28-3.19,7.55-2.83,11.52,1.09,2.54,2.51,4.95,5.13,7.69,7.98,8.41-11.21,16.38-21.84,24.48-32.65-1.07-.85-1.89-1.59-2.8-2.2-14.02-9.49-33.16-8.11-45.68,3.27-14.07,12.79-16.62,33.09-5.92,48.86,2.54,3.75,3.07,7.18,.76,11.08-.93,1.56-1.64,3.25-2.61,5.19,12.39,0,24.23,.29,36.05-.11,7.37-.24,13.99-3.29,19.83-7.87,13.86-10.88,18.52-31.76,10.01-45.89Z"/><path class="cls-1" d="M119.84,303.67c.08,4.13-3.38,7.62-7.51,7.59-3.99-.03-7.33-3.34-7.4-7.33-.08-4.13,3.37-7.62,7.51-7.59,3.99,.03,7.33,3.34,7.41,7.32Z"/></g></g></svg>